<svg width="34" height="34" viewBox="0 0 34 34" fill="none" xmlns="http://www.w3.org/2000/svg">
<g clip-path="url(#clip0_3716_65533)">
<path d="M14.166 7.08333C14.166 6.33189 14.4645 5.61122 14.9959 5.07986C15.5272 4.54851 16.2479 4.25 16.9993 4.25C17.7508 4.25 18.4715 4.54851 19.0028 5.07986C19.5342 5.61122 19.8327 6.33189 19.8327 7.08333C21.4596 7.85262 22.8465 9.05013 23.8448 10.5475C24.843 12.0449 25.415 13.7857 25.4994 15.5833V19.8333C25.606 20.7141 25.9179 21.5575 26.41 22.2957C26.9021 23.0339 27.5607 23.6462 28.3327 24.0833H5.66602C6.43801 23.6462 7.09658 23.0339 7.5887 22.2957C8.08082 21.5575 8.39274 20.7141 8.49935 19.8333V15.5833C8.58373 13.7857 9.15569 12.0449 10.1539 10.5475C11.1522 9.05013 12.5391 7.85262 14.166 7.08333Z" stroke="#EEB831" stroke-width="2" stroke-linecap="round" stroke-linejoin="round"/>
<path d="M12.75 24.0835V25.5002C12.75 26.6273 13.1978 27.7083 13.9948 28.5054C14.7918 29.3024 15.8728 29.7502 17 29.7502C18.1272 29.7502 19.2082 29.3024 20.0052 28.5054C20.8022 27.7083 21.25 26.6273 21.25 25.5002V24.0835" stroke="#EEB831" stroke-width="2" stroke-linecap="round" stroke-linejoin="round"/>
</g>
<defs>
<clipPath id="clip0_3716_65533">
<rect width="34" height="34" fill="white"/>
</clipPath>
</defs>
</svg>
