<svg width="26" height="26" viewBox="0 0 26 26" fill="none" xmlns="http://www.w3.org/2000/svg">
<path d="M22.75 10.833C22.75 18.4163 13 24.9163 13 24.9163C13 24.9163 3.25 18.4163 3.25 10.833C3.25 8.24715 4.27723 5.7672 6.10571 3.93872C7.93419 2.11024 10.4141 1.08301 13 1.08301C15.5859 1.08301 18.0658 2.11024 19.8943 3.93872C21.7228 5.7672 22.75 8.24715 22.75 10.833Z" stroke="black" stroke-width="2" stroke-linecap="round" stroke-linejoin="round"/>
<path d="M13 14.083C14.7949 14.083 16.25 12.6279 16.25 10.833C16.25 9.03808 14.7949 7.58301 13 7.58301C11.2051 7.58301 9.75 9.03808 9.75 10.833C9.75 12.6279 11.2051 14.083 13 14.083Z" stroke="black" stroke-width="2" stroke-linecap="round" stroke-linejoin="round"/>
</svg>
