<svg width="40" height="40" viewBox="0 0 40 40" fill="none" xmlns="http://www.w3.org/2000/svg">
<path d="M5.51105 35.4106H34.4896C37.9889 35.4106 39.7468 33.6698 39.7468 30.2213V9.77913C39.7468 6.33056 37.9889 4.58984 34.4896 4.58984H5.51105C2.02891 4.59056 0.253906 6.31484 0.253906 9.77913V30.222C0.253906 33.687 2.02891 35.4106 5.51105 35.4106ZM12.8096 20.4113C10.5332 20.4113 8.67462 18.5534 8.67462 16.2763C8.67462 14.0163 10.5332 12.1413 12.8103 12.1413C15.0703 12.1413 16.9282 14.0163 16.9282 16.277C16.9282 18.5534 15.0703 20.4113 12.8096 20.4113ZM5.54462 32.7156C3.93748 32.7156 2.94962 31.7441 2.94962 30.1034V29.082L8.08891 24.5963C8.82534 23.9434 9.62891 23.6084 10.3825 23.6084C11.186 23.6084 12.0396 23.9434 12.7768 24.6298L15.991 27.5084L23.9768 20.4106C24.8132 19.6741 25.7339 19.3391 26.6718 19.3391C27.5925 19.3391 28.5468 19.6906 29.3503 20.4277L37.0503 27.5591V30.1377C37.0503 31.7448 36.0468 32.7156 34.456 32.7156H5.54462Z" fill="#7D7D7D"/>
</svg>
