<svg width="34" height="34" viewBox="0 0 34 34" fill="none" xmlns="http://www.w3.org/2000/svg">
<g clip-path="url(#clip0_3754_30211)">
<path d="M10.332 10.6667C10.332 12.4348 11.0344 14.1305 12.2847 15.3807C13.5349 16.631 15.2306 17.3333 16.9987 17.3333C18.7668 17.3333 20.4625 16.631 21.7127 15.3807C22.963 14.1305 23.6654 12.4348 23.6654 10.6667C23.6654 8.89856 22.963 7.20286 21.7127 5.95262C20.4625 4.70238 18.7668 4 16.9987 4C15.2306 4 13.5349 4.70238 12.2847 5.95262C11.0344 7.20286 10.332 8.89856 10.332 10.6667Z" stroke="#EEB831" stroke-width="2" stroke-linecap="round" stroke-linejoin="round"/>
<path d="M7 29V25.6667C7 23.8986 7.70238 22.2029 8.95262 20.9526C10.2029 19.7024 11.8986 19 13.6667 19H20.3333C22.1014 19 23.7971 19.7024 25.0474 20.9526C26.2976 22.2029 27 23.8986 27 25.6667V29" stroke="#EEB831" stroke-width="2" stroke-linecap="round" stroke-linejoin="round"/>
</g>
<defs>
<clipPath id="clip0_3754_30211">
<rect width="34" height="34" fill="white"/>
</clipPath>
</defs>
</svg>
